<?xml version="1.0" encoding="UTF-8"?>
<svg version="1.1" xmlns="http://www.w3.org/2000/svg" width="192" height="192">
<path d="M0 0 C63.36 0 126.72 0 192 0 C192 63.36 192 126.72 192 192 C128.64 192 65.28 192 0 192 C0 128.64 0 65.28 0 0 Z " fill="#882255" transform="translate(0,0)"/>
<path d="M0 0 C0.99 0.33 1.98 0.66 3 1 C2.125 6.75 2.125 6.75 1 9 C2.134375 8.814375 3.26875 8.62875 4.4375 8.4375 C6.2009375 8.2209375 6.2009375 8.2209375 8 8 C9 9 9 9 9.09765625 11.06640625 C9.08605469 11.89011719 9.07445313 12.71382812 9.0625 13.5625 C9.05347656 14.38878906 9.04445313 15.21507813 9.03515625 16.06640625 C9.02355469 16.70449219 9.01195313 17.34257813 9 18 C9.33773437 17.44570312 9.67546875 16.89140625 10.0234375 16.3203125 C10.46945313 15.59585938 10.91546875 14.87140625 11.375 14.125 C11.81585938 13.40570313 12.25671875 12.68640625 12.7109375 11.9453125 C14 10 14 10 16 8 C19.625 7.875 19.625 7.875 23 8 C23.495 8.99 23.495 8.99 24 10 C23.030625 10.309375 22.06125 10.61875 21.0625 10.9375 C18.15934208 11.69523342 18.15934208 11.69523342 17 13 C16.95936168 14.66617115 16.957279 16.33388095 17 18 C17.99 18 18.98 18 20 18 C19.79375 17.21625 19.5875 16.4325 19.375 15.625 C19.25125 14.75875 19.1275 13.8925 19 13 C19.66 12.34 20.32 11.68 21 11 C23.625 11.375 23.625 11.375 26 12 C26.495 13.98 26.495 13.98 27 16 C27.2475 14.80375 27.495 13.6075 27.75 12.375 C28.99213823 7.37095742 31.35130265 3.64869735 35 0 C37.625 -0.125 37.625 -0.125 40 0 C40.71484375 2.25 40.71484375 2.25 41 5 C39.56640625 7.0625 39.56640625 7.0625 37.5625 9 C34.57833236 11.83294168 34.57833236 11.83294168 33.77734375 15.75 C33.85082031 16.4925 33.92429688 17.235 34 18 C35.92309422 17.96044102 35.92309422 17.96044102 38 17 C39.06775224 15.03533587 40.06553465 13.03144641 41 11 C42.296875 9.31640625 42.296875 9.31640625 44 8 C46.26171875 7.70703125 46.26171875 7.70703125 48.6875 7.8125 C49.49574219 7.83957031 50.30398437 7.86664063 51.13671875 7.89453125 C51.75160156 7.92933594 52.36648437 7.96414062 53 8 C54.1577506 11.47325181 54.06866652 14.36067448 54 18 C56.35448165 15.44931155 56.98327924 14.28982642 57.1875 10.75 C57.125625 9.8425 57.06375 8.935 57 8 C58.32 7.67 59.64 7.34 61 7 C61.495 8.485 61.495 8.485 62 10 C64.97 9.505 64.97 9.505 68 9 C68 11.97 68 14.94 68 18 C68.78375 16.845 69.5675 15.69 70.375 14.5 C71.7109375 12.53125 71.7109375 12.53125 73 11 C73.66 11 74.32 11 75 11 C75 13.31 75 15.62 75 18 C76.65 18 78.3 18 80 18 C79.0260575 14.51003936 78.18710054 12.21917492 75.8125 9.4375 C74 7 74 7 74.125 4.3125 C75 2 75 2 77 0 C80 -0.25 80 -0.25 83 0 C83.99 0.99 83.99 0.99 85 2 C84.625 4.4375 84.625 4.4375 84 7 C84 7.99 84 8.98 84 10 C84.495 10.495 84.495 10.495 85 11 C85.58007566 18.19293821 85.58007566 18.19293821 83.5625 21 C79.71573526 22.50117648 76.07497497 22.20262306 72 22 C70.12488426 22 68.24958447 22.01786704 66.375 22.0625 C64 22 64 22 63 21 C62.76470588 15.47058824 62.76470588 15.47058824 64 13 C63.01 13 62.02 13 61 13 C61 16.3 61 19.6 61 23 C59.68 22.67 58.36 22.34 57 22 C56.34 22 55.68 22 55 22 C53.9275 21.979375 52.855 21.95875 51.75 21.9375 C48.0623241 21.89114591 48.0623241 21.89114591 44.75 22.625 C42 23 42 23 39 21 C38.505 21.495 38.505 21.495 38 22 C34.5 22.125 34.5 22.125 31 22 C30.67 21.67 30.34 21.34 30 21 C26.5 20.83333333 26.5 20.83333333 23 21 C22.505 21.495 22.505 21.495 22 22 C14.70588235 22.23529412 14.70588235 22.23529412 11 21 C8.99787771 21.32033957 6.99760305 21.65259077 5 22 C4.67 21.67 4.34 21.34 4 21 C4.08963062 19.30858344 4.24577676 17.62040398 4.4375 15.9375 C4.53933594 15.01839844 4.64117187 14.09929687 4.74609375 13.15234375 C4.82988281 12.44207031 4.91367187 11.73179688 5 11 C1.0833428 14.263881 0.3606337 17.1924276 -1 22 C-1.99 22.33 -2.98 22.66 -4 23 C-4 22.01 -4 21.02 -4 20 C-4.99 20.66 -5.98 21.32 -7 22 C-9.72283905 22.31254378 -12.24442486 22.13333428 -15 22 C-16 21 -16 21 -16.375 17.25 C-16.3305511 13.71948741 -16.02506054 13.03436875 -13.8125 10 C-10.80512535 7.86142247 -9.58848221 7.48735968 -6 8 C-6 9.32 -6 10.64 -6 12 C-7.32 12 -8.64 12 -10 12 C-10.33 13.98 -10.66 15.96 -11 18 C-8.83125748 17.49396008 -7.00032373 17.00016187 -5 16 C-4.41933162 13.8508823 -4.41933162 13.8508823 -4.0625 11.3125 C-3.30687834 7.09915364 -2.16395305 3.73773708 0 0 Z " fill="#F2E8ED" transform="translate(48,81)"/>
<path d="M0 0 C0.99 0.33 1.98 0.66 3 1 C3 4.66666667 3 8.33333333 3 12 C3.39832031 11.07767578 3.39832031 11.07767578 3.8046875 10.13671875 C4.33449219 8.92435547 4.33449219 8.92435547 4.875 7.6875 C5.22304687 6.88699219 5.57109375 6.08648437 5.9296875 5.26171875 C7 3 7 3 9 0 C9.66 0 10.32 0 11 0 C11 0.66 11 1.32 11 2 C12.134375 1.814375 13.26875 1.62875 14.4375 1.4375 C16.2009375 1.2209375 16.2009375 1.2209375 18 1 C19 2 19 2 19.125 5.375 C19 9 19 9 18 12 C18.66 12 19.32 12 20 12 C20.226875 11.113125 20.45375 10.22625 20.6875 9.3125 C22.2098325 5.47042274 23.76722915 3.55614439 27 1 C29.8125 0.6875 29.8125 0.6875 32 1 C31.67 2.32 31.34 3.64 31 5 C29.68 4.67 28.36 4.34 27 4 C27 6.31 27 8.62 27 11 C29.96175123 10.38722388 31.38058783 9.74627478 34 8 C33.25 12.75 33.25 12.75 31 15 C29.125 15.23046875 29.125 15.23046875 27 15.1875 C26.29875 15.18105469 25.5975 15.17460938 24.875 15.16796875 C23 15 23 15 21 14 C18.99890722 14.32670903 16.99883869 14.65977214 15 15 C14.67 14.67 14.34 14.34 14 14 C14.08963062 12.30858344 14.24577676 10.62040398 14.4375 8.9375 C14.53933594 8.01839844 14.64117187 7.09929687 14.74609375 6.15234375 C14.82988281 5.44207031 14.91367188 4.73179688 15 4 C12.87501931 5.62280307 12.87501931 5.62280307 11 8 C10.83318891 11.08347826 10.83318891 11.08347826 11 14 C10.34 14.66 9.68 15.32 9 16 C8.01 16 7.02 16 6 16 C5.67 15.34 5.34 14.68 5 14 C2.17557676 16.06106561 0.2188407 17.60791042 -1.5 20.6875 C-3 23 -3 23 -5.5 23.9375 C-8 24 -8 24 -11 22 C-10.67 20.35 -10.34 18.7 -10 17 C-6.535 16.505 -6.535 16.505 -3 16 C-3.33 15.67 -3.66 15.34 -4 15 C-4.804375 15.020625 -5.60875 15.04125 -6.4375 15.0625 C-9 15 -9 15 -11 13 C-10.7578125 10.1796875 -10.7578125 10.1796875 -10.125 6.875 C-9.92132813 5.77929688 -9.71765625 4.68359375 -9.5078125 3.5546875 C-9.34023437 2.71164063 -9.17265625 1.86859375 -9 1 C-7.68 1 -6.36 1 -5 1 C-5.33 4.63 -5.66 8.26 -6 12 C-5.01 12 -4.02 12 -3 12 C-2.01 8.04 -1.02 4.08 0 0 Z " fill="#F5EEF2" transform="translate(146,88)"/>
<path d="M0 0 C0.99 0.33 1.98 0.66 3 1 C2.125 6.75 2.125 6.75 1 9 C2.134375 8.814375 3.26875 8.62875 4.4375 8.4375 C6.2009375 8.2209375 6.2009375 8.2209375 8 8 C9 9 9 9 9.09765625 11.06640625 C9.08605469 11.89011719 9.07445313 12.71382812 9.0625 13.5625 C9.05347656 14.38878906 9.04445313 15.21507813 9.03515625 16.06640625 C9.02355469 16.70449219 9.01195313 17.34257813 9 18 C9.33773437 17.44570312 9.67546875 16.89140625 10.0234375 16.3203125 C10.46945313 15.59585938 10.91546875 14.87140625 11.375 14.125 C11.81585938 13.40570313 12.25671875 12.68640625 12.7109375 11.9453125 C14 10 14 10 16 8 C19.625 7.875 19.625 7.875 23 8 C23.495 8.99 23.495 8.99 24 10 C23.030625 10.309375 22.06125 10.61875 21.0625 10.9375 C18.15934208 11.69523342 18.15934208 11.69523342 17 13 C16.95936168 14.66617115 16.957279 16.33388095 17 18 C17.639375 18.28875 18.27875 18.5775 18.9375 18.875 C21 20 21 20 22 22 C20.741875 22.020625 19.48375 22.04125 18.1875 22.0625 C17.47980469 22.07410156 16.77210937 22.08570312 16.04296875 22.09765625 C14 22 14 22 11 21 C8.99787771 21.32033957 6.99760305 21.65259077 5 22 C4.67 21.67 4.34 21.34 4 21 C4.08963062 19.30858344 4.24577676 17.62040398 4.4375 15.9375 C4.53933594 15.01839844 4.64117187 14.09929687 4.74609375 13.15234375 C4.82988281 12.44207031 4.91367187 11.73179688 5 11 C1.0833428 14.263881 0.3606337 17.1924276 -1 22 C-1.99 22.33 -2.98 22.66 -4 23 C-4 22.01 -4 21.02 -4 20 C-4.99 20.66 -5.98 21.32 -7 22 C-9.72283905 22.31254378 -12.24442486 22.13333428 -15 22 C-16 21 -16 21 -16.375 17.25 C-16.3305511 13.71948741 -16.02506054 13.03436875 -13.8125 10 C-10.80512535 7.86142247 -9.58848221 7.48735968 -6 8 C-6 9.32 -6 10.64 -6 12 C-7.32 12 -8.64 12 -10 12 C-10.33 13.98 -10.66 15.96 -11 18 C-8.83125748 17.49396008 -7.00032373 17.00016187 -5 16 C-4.41933162 13.8508823 -4.41933162 13.8508823 -4.0625 11.3125 C-3.30687834 7.09915364 -2.16395305 3.73773708 0 0 Z " fill="#F6EEF2" transform="translate(48,81)"/>
<path d="M0 0 C3 0.25 3 0.25 5 2.25 C4.625 4.6875 4.625 4.6875 4 7.25 C4 8.24 4 9.23 4 10.25 C4.33 10.58 4.66 10.91 5 11.25 C5.58007566 18.44293821 5.58007566 18.44293821 3.5625 21.25 C-0.28426474 22.75117648 -3.92502503 22.45262306 -8 22.25 C-9.87511574 22.25 -11.75041553 22.26786704 -13.625 22.3125 C-16 22.25 -16 22.25 -17 21.25 C-17.07205511 19.56391034 -17.08386068 17.87499341 -17.0625 16.1875 C-17.05347656 15.26839844 -17.04445313 14.34929687 -17.03515625 13.40234375 C-17.02355469 12.69207031 -17.01195313 11.98179688 -17 11.25 C-15.35 10.59 -13.7 9.93 -12 9.25 C-12 12.22 -12 15.19 -12 18.25 C-11.21625 17.095 -10.4325 15.94 -9.625 14.75 C-8.2890625 12.78125 -8.2890625 12.78125 -7 11.25 C-6.34 11.25 -5.68 11.25 -5 11.25 C-5 13.56 -5 15.87 -5 18.25 C-3.35 18.25 -1.7 18.25 0 18.25 C-0.9739425 14.76003936 -1.81289946 12.46917492 -4.1875 9.6875 C-6 7.25 -6 7.25 -5.875 4.5625 C-4.55674298 1.07853503 -3.75221018 0.31268418 0 0 Z " fill="#F0E3E9" transform="translate(128,80.75)"/>
<path d="M0 0 C2.0625 0.4375 2.0625 0.4375 4 1 C4 1.66 4 2.32 4 3 C4.99 3.33 5.98 3.66 7 4 C6.67 4.66 6.34 5.32 6 6 C5.01 6 4.02 6 3 6 C3 9.3 3 12.6 3 16 C1.68 15.67 0.36 15.34 -1 15 C-1.66 15 -2.32 15 -3 15 C-4.50131176 14.86835513 -6.00124828 14.7206475 -7.5 14.5625 C-8.2940625 14.48128906 -9.088125 14.40007812 -9.90625 14.31640625 C-12 14 -12 14 -14 13 C-14.36923077 6.47692308 -14.36923077 6.47692308 -12.5 4.0625 C-12.005 3.711875 -11.51 3.36125 -11 3 C-13.49361571 4.20381448 -15.68143083 5.45428722 -18 7 C-16.84826645 4.53199953 -15.95216435 2.95216435 -14 1 C-11.8359375 0.8046875 -11.8359375 0.8046875 -9.375 0.875 C-8.14910156 0.90207031 -8.14910156 0.90207031 -6.8984375 0.9296875 C-5.95871094 0.96449219 -5.95871094 0.96449219 -5 1 C-3.8422494 4.47325181 -3.93133348 7.36067448 -4 11 C-1.65727752 8.46205064 -1.01324117 7.33764977 -0.875 3.8125 C-0.91625 2.884375 -0.9575 1.95625 -1 1 C-0.67 0.67 -0.34 0.34 0 0 Z " fill="#F1E5EB" transform="translate(106,88)"/>
<path d="M0 0 C3.4375 0.1875 3.4375 0.1875 4.4375 1.1875 C4.48193347 3.18700636 4.47670815 5.18788436 4.4375 7.1875 C4.4375 8.5075 4.4375 9.8275 4.4375 11.1875 C4.7675 11.5175 5.0975 11.8475 5.4375 12.1875 C4.97260896 18.46352906 4.97260896 18.46352906 3.17578125 20.89453125 C0.94677376 22.5525121 -0.37159252 22.55896919 -3.125 22.5 C-3.91003906 22.49613281 -4.69507813 22.49226563 -5.50390625 22.48828125 C-7.5625 22.1875 -7.5625 22.1875 -9.5625 20.1875 C-9.89583333 14.85416667 -9.89583333 14.85416667 -8.5625 12.1875 C-7.5725 12.1875 -6.5825 12.1875 -5.5625 12.1875 C-5.2325 14.1675 -4.9025 16.1475 -4.5625 18.1875 C-3.2425 17.8575 -1.9225 17.5275 -0.5625 17.1875 C-0.92350891 13.93841983 -1.19540961 12.53234249 -3.625 10.25 C-5.5625 8.1875 -5.5625 8.1875 -5.9375 5.0625 C-5.36368314 0.6632374 -4.39358779 0.23124146 0 0 Z " fill="#F8F2F5" transform="translate(24.5625,80.8125)"/>
<path d="M0 0 C-1.2065625 0.7734375 -1.2065625 0.7734375 -2.4375 1.5625 C-5.66447078 4.63205757 -5.74896257 6.64868459 -6 11 C-4.68 11.66 -3.36 12.32 -2 13 C-4.8125 13.625 -4.8125 13.625 -8 14 C-8.99 13.34 -9.98 12.68 -11 12 C-11.99 12.33 -12.98 12.66 -14 13 C-13.690625 12.236875 -13.38125 11.47375 -13.0625 10.6875 C-12.32106407 8.81210323 -11.63771783 6.91315348 -11 5 C-5.11414982 -0.75208086 -5.11414982 -0.75208086 0 0 Z " fill="#F3EAEF" transform="translate(98,90)"/>
<path d="M0 0 C0.7425 0.0825 1.485 0.165 2.25 0.25 C3.0625 2.375 3.0625 2.375 3.25 5.25 C1.80576519 7.55107561 0.14127865 9.26646386 -1.75 11.25 C-2.74 10.92 -3.73 10.59 -4.75 10.25 C-4.75 8.6 -4.75 6.95 -4.75 5.25 C-5.41 4.92 -6.07 4.59 -6.75 4.25 C-3.42692308 0.31153846 -3.42692308 0.31153846 0 0 Z " fill="#F2E6EC" transform="translate(85.75,80.75)"/>
<path d="M0 0 C1.32 0 2.64 0 4 0 C3.67 3.96 3.34 7.92 3 12 C3.66 12 4.32 12 5 12 C5 12.66 5 13.32 5 14 C2.625 14.125 2.625 14.125 0 14 C-0.66 13.34 -1.32 12.68 -2 12 C-1.7578125 9.1796875 -1.7578125 9.1796875 -1.125 5.875 C-0.92132813 4.77929688 -0.71765625 3.68359375 -0.5078125 2.5546875 C-0.34023437 1.71164063 -0.17265625 0.86859375 0 0 Z " fill="#F6EFF3" transform="translate(137,89)"/>
<path d="M0 0 C0.33 0.99 0.66 1.98 1 3 C1.66 3 2.32 3 3 3 C3 3.99 3 4.98 3 6 C3.99 6.33 4.98 6.66 6 7 C6 7.66 6 8.32 6 9 C6.99 9 7.98 9 9 9 C9 9.66 9 10.32 9 11 C9.99 11.33 10.98 11.66 12 12 C8.04 12 4.08 12 0 12 C0 8.04 0 4.08 0 0 Z " fill="#000000" transform="translate(0,180)"/>
<path d="M0 0 C0.33 0 0.66 0 1 0 C1 3.96 1 7.92 1 12 C-2.96 12 -6.92 12 -11 12 C-10.01 11.67 -9.02 11.34 -8 11 C-8 10.34 -8 9.68 -8 9 C-7.01 9 -6.02 9 -5 9 C-4.67 8.01 -4.34 7.02 -4 6 C-3.34 6 -2.68 6 -2 6 C-2 5.01 -2 4.02 -2 3 C-1.34 3 -0.68 3 0 3 C0 2.01 0 1.02 0 0 Z " fill="#000000" transform="translate(191,180)"/>
<path d="M0 0 C3.96 0 7.92 0 12 0 C12 3.96 12 7.92 12 12 C11.67 11.01 11.34 10.02 11 9 C10.34 9 9.68 9 9 9 C9 8.01 9 7.02 9 6 C8.01 5.67 7.02 5.34 6 5 C6 4.34 6 3.68 6 3 C5.01 3 4.02 3 3 3 C3 2.34 3 1.68 3 1 C2.01 0.67 1.02 0.34 0 0 Z " fill="#000000" transform="translate(180,0)"/>
<path d="M0 0 C3.96 0 7.92 0 12 0 C11.01 0.33 10.02 0.66 9 1 C9 1.66 9 2.32 9 3 C8.01 3 7.02 3 6 3 C5.67 3.99 5.34 4.98 5 6 C4.34 6 3.68 6 3 6 C3 6.99 3 7.98 3 9 C2.34 9 1.68 9 1 9 C0.67 9.99 0.34 10.98 0 12 C0 8.04 0 4.08 0 0 Z " fill="#000000" transform="translate(0,0)"/>
<path d="M0 0 C2 3 2 3 1.8125 5.5625 C1 8 1 8 -2 10 C-4.1875 9.625 -4.1875 9.625 -6 9 C-5.67 7.02 -5.34 5.04 -5 3 C-4.01 2.67 -3.02 2.34 -2 2 C-1.34 2.33 -0.68 2.66 0 3 C0 2.01 0 1.02 0 0 Z " fill="#953A67" transform="translate(42,90)"/>
<path d="M0 0 C1.67542976 0.28604898 3.34385343 0.61781233 5 1 C5.1875 3.875 5.1875 3.875 5 7 C4.01 7.66 3.02 8.32 2 9 C0.5 7.8125 0.5 7.8125 -1 6 C-1.25 3.375 -1.25 3.375 -1 1 C-0.67 0.67 -0.34 0.34 0 0 Z " fill="#D7B5C6" transform="translate(24,81)"/>
<path d="M0 0 C1.6875 2.3125 1.6875 2.3125 1.4375 4.5625 C1.19 5.14 0.9425 5.7175 0.6875 6.3125 C-1.25 6.875 -1.25 6.875 -3.3125 7.3125 C-4.3125 6.3125 -4.3125 6.3125 -4.375 3.25 C-4.354375 2.280625 -4.33375 1.31125 -4.3125 0.3125 C-4.9725 -0.0175 -5.6325 -0.3475 -6.3125 -0.6875 C-3.33965111 -1.9615781 -2.68953962 -1.96263702 0 0 Z " fill="#9E4B74" transform="translate(23.3125,92.6875)"/>
<path d="M0 0 C0 1.32 0 2.64 0 4 C-1.32 4 -2.64 4 -4 4 C-4.66 4.66 -5.32 5.32 -6 6 C-6.66 6 -7.32 6 -8 6 C-8.33 8.31 -8.66 10.62 -9 13 C-9.33 13 -9.66 13 -10 13 C-10.60737527 5.8329718 -10.60737527 5.8329718 -7.8125 2 C-4.80512535 -0.13857753 -3.58848221 -0.51264032 0 0 Z " fill="#F1E5EB" transform="translate(42,89)"/>
<path d="M0 0 C0.33 0 0.66 0 1 0 C1.309375 1.093125 1.61875 2.18625 1.9375 3.3125 C2.58337897 5.55407994 3.2623117 7.7869351 4 10 C2.02 10 0.04 10 -2 10 C-2.1953125 3.9453125 -2.1953125 3.9453125 -2 2 C-1.34 1.34 -0.68 0.68 0 0 Z " fill="#FCF9FB" transform="translate(35,93)"/>
<path d="M0 0 C2.875 -0.125 2.875 -0.125 6 0 C6.66 0.66 7.32 1.32 8 2 C7.625 4.625 7.625 4.625 7 7 C6.34 7 5.68 7 5 7 C5 5.68 5 4.36 5 3 C1.37114676 2.84850702 1.37114676 2.84850702 -2 4 C-1.34 2.68 -0.68 1.36 0 0 Z " fill="#F6EFF2" transform="translate(125,81)"/>
<path d="M0 0 C0.99 0 1.98 0 3 0 C3.125 2.875 3.125 2.875 3 6 C2.34 6.66 1.68 7.32 1 8 C0.01 8 -0.98 8 -2 8 C-2.125 5.125 -2.125 5.125 -2 2 C-1.34 1.34 -0.68 0.68 0 0 Z " fill="#913462" transform="translate(94,92)"/>
<path d="M0 0 C2 1.1875 2 1.1875 4 3 C4.25 5.6875 4.25 5.6875 4 8 C2.35 8 0.7 8 -1 8 C-1.04241723 5.66705225 -1.04092937 3.33297433 -1 1 C-0.67 0.67 -0.34 0.34 0 0 Z " fill="#8E2E5E" transform="translate(124,91)"/>
<path d="M0 0 C-1.32 0.99 -2.64 1.98 -4 3 C-3.67 4.98 -3.34 6.96 -3 9 C-4.65 8.67 -6.3 8.34 -8 8 C-8.36075949 3.55063291 -8.36075949 3.55063291 -6.8125 1.1875 C-4.44017475 -0.36678206 -2.77958655 -0.22537188 0 0 Z " fill="#9E4C75" transform="translate(72,91)"/>
<path d="M0 0 C1.98 0.66 3.96 1.32 6 2 C6 3.32 6 4.64 6 6 C4.1875 6.625 4.1875 6.625 2 7 C1.01 6.34 0.02 5.68 -1 5 C-0.67 3.35 -0.34 1.7 0 0 Z " fill="#D7B6C6" transform="translate(136,105)"/>
<path d="M0 0 C0.66 0 1.32 0 2 0 C2.33 1.65 2.66 3.3 3 5 C1.68 5.99 0.36 6.98 -1 8 C-1.66 7.67 -2.32 7.34 -3 7 C-1.125 1.125 -1.125 1.125 0 0 Z " fill="#D2ACBF" transform="translate(84,84)"/>
<path d="M0 0 C0.6875 1.8125 0.6875 1.8125 1 4 C-0.3125 5.75 -0.3125 5.75 -2 7 C-2.66 7 -3.32 7 -4 7 C-4 6.34 -4 5.68 -4 5 C-4.66 4.67 -5.32 4.34 -6 4 C-5.195625 3.525625 -4.39125 3.05125 -3.5625 2.5625 C-1.15246512 1.23099846 -1.15246512 1.23099846 0 0 Z " fill="#EEE0E7" transform="translate(179,96)"/>
<path d="M0 0 C0.99 0 1.98 0 3 0 C2.4140625 6.15234375 2.4140625 6.15234375 2 8 C1.01 8.495 1.01 8.495 0 9 C0 6.03 0 3.06 0 0 Z " fill="#A2537A" transform="translate(109,94)"/>
<path d="M0 0 C0.33 0.99 0.66 1.98 1 3 C1.66 3.33 2.32 3.66 3 4 C1.515 6.475 1.515 6.475 0 9 C-1.10844919 5.67465243 -0.84454356 3.37817425 0 0 Z " fill="#98406C" transform="translate(57,91)"/>
</svg>
